<?xml version="1.0" standalone="no"?><!-- Generator: Gravit.io --><svg xmlns="http://www.w3.org/2000/svg" xmlns:xlink="http://www.w3.org/1999/xlink" style="isolation:isolate" viewBox="0 0 96 96" width="96" height="96"><defs><clipPath id="_clipPath_uSZJw1sEvMaq1fyCiieBASb7tRv8lmaP"><rect width="96" height="96"/></clipPath></defs><g clip-path="url(#_clipPath_uSZJw1sEvMaq1fyCiieBASb7tRv8lmaP)"><g><linearGradient id="_lgradient_11" x1="-0.07762198706643116" y1="-0.03225602586713669" x2="0.9664035861258076" y2="1.02976998824221" gradientTransform="matrix(10.612,-39.604,69.137,18.525,7.601,31.711)" gradientUnits="userSpaceOnUse"><stop offset="1.3043478260869565%" stop-opacity="1" style="stop-color:rgb(242,81,63)"/><stop offset="97.82608695652173%" stop-opacity="1" style="stop-color:rgb(247,132,65)"/></linearGradient><path d=" M 84.786 20.204 C 83.49 18.467 82.05 16.804 80.472 15.227 C 62.362 -2.883 32.956 -2.883 14.846 15.227 C -3.264 33.337 35.701 23.777 53.812 41.887 C 54.723 42.799 55.565 43.763 56.342 44.771 C 57.471 44.018 58.547 43.189 59.581 42.304 C 61.478 40.693 63.285 38.985 65.003 37.178 C 66.706 35.388 68.377 33.559 70.021 31.711 C 71.215 30.365 72.425 29.034 73.653 27.719 C 74.828 26.441 76.079 25.237 77.395 24.103 C 78.069 23.514 78.785 22.968 79.52 22.469 C 80.332 21.917 81.185 21.449 82.083 21.047 C 82.948 20.668 83.856 20.383 84.786 20.204 Z " fill="url(#_lgradient_11)"/><linearGradient id="_lgradient_12" x1="-0.07762198706643116" y1="-0.03225602586713669" x2="0.9664035861258076" y2="1.02976998824221" gradientTransform="matrix(14.468,53.995,89.647,-24.021,0.404,50.781)" gradientUnits="userSpaceOnUse"><stop offset="1.30434782608696%" stop-opacity="1" style="stop-color:rgb(247,132,65)"/><stop offset="98.26086956521739%" stop-opacity="1" style="stop-color:rgb(242,81,63)"/></linearGradient><path d=" M 49.937 56.346 C 25.198 62.975 -3.767 35.214 2.862 59.953 C 9.49 84.691 34.957 99.395 59.696 92.766 C 84.435 86.137 99.138 60.671 92.509 35.932 C 85.88 11.193 74.676 49.718 49.937 56.346 Z " fill="url(#_lgradient_12)"/></g></g></svg>