<?xml version="1.0" standalone="no"?><!-- Generator: Gravit.io --><svg xmlns="http://www.w3.org/2000/svg" xmlns:xlink="http://www.w3.org/1999/xlink" style="isolation:isolate" viewBox="0 0 96 96" width="96" height="96"><path d=" M 6.178 47.502 C 6.178 47.458 6.178 47.451 6.178 47.437 C 6.178 47.414 6.178 47.414 6.178 47.407 C 6.178 47.407 6.178 47.407 6.178 47.393 L 6.178 47.393 C 6.178 47.387 6.178 47.366 6.178 47.36 C 6.178 47.346 6.178 47.346 6.178 47.346 C 6.178 47.346 6.178 47.346 6.178 47.336 C 6.157 47.248 6.171 47.218 6.171 47.153 C 6.171 36.323 10.466 25.796 18.009 18.02 L 9.327 9.45 C 8.912 9.038 8.787 8.402 9.01 7.892 C 9.229 7.355 9.75 7 10.334 7 L 38.555 7 C 39.346 7 39.988 7.642 39.988 8.426 L 39.988 36.292 C 39.988 36.309 39.988 36.336 39.988 36.356 C 39.988 37.154 39.349 37.789 38.555 37.789 C 38.018 37.789 37.555 37.502 37.315 37.073 L 28.755 28.628 C 23.916 33.636 21.277 40.178 21.277 47.346 C 21.351 61.985 33.348 73.901 48.21 73.901 C 62.836 73.786 74.735 61.803 74.735 46.937 L 89.834 46.968 L 89.834 47.17 C 89.827 70.086 71.186 88.855 47.997 89 C 25.122 89 6.377 70.403 6.178 47.502 Z " fill="rgb(255,255,255)"/><g><linearGradient id="_lgradient_0" x1="-0.07762198706643116" y1="-0.03225602586713669" x2="0.9664035861258076" y2="1.02976998824221" gradientTransform="matrix(3.97,-14.816,25.864,6.93,52.642,16.248)" gradientUnits="userSpaceOnUse"><stop offset="1.30434782608696%" stop-opacity="1" style="stop-color:rgb(255,255,255)"/><stop offset="98.69565217391305%" stop-opacity="1" style="stop-color:rgb(255,255,255)"/></linearGradient><path d=" M 81.516 11.943 C 81.031 11.293 80.492 10.671 79.902 10.081 C 73.127 3.306 62.127 3.306 55.352 10.081 C 48.577 16.856 63.154 13.28 69.929 20.055 C 70.27 20.396 70.584 20.757 70.875 21.134 C 71.298 20.852 71.7 20.542 72.087 20.211 C 72.797 19.608 73.473 18.969 74.115 18.293 C 74.752 17.624 75.377 16.939 75.993 16.248 C 76.439 15.745 76.892 15.247 77.351 14.754 C 77.791 14.277 78.259 13.826 78.751 13.402 C 79.003 13.182 79.271 12.977 79.546 12.79 C 79.85 12.584 80.169 12.409 80.505 12.259 C 80.828 12.117 81.168 12.01 81.516 11.943 Z " fill="url(#_lgradient_0)"/><linearGradient id="_lgradient_1" x1="-0.07762198706643116" y1="-0.03225602586713669" x2="0.9664035861258076" y2="1.02976998824221" gradientTransform="matrix(5.412,20.199,33.537,-8.986,49.949,23.382)" gradientUnits="userSpaceOnUse"><stop offset="1.30434782608696%" stop-opacity="1" style="stop-color:rgb(255,255,255)"/><stop offset="98.69565217391305%" stop-opacity="1" style="stop-color:rgb(255,255,255)"/></linearGradient><path d=" M 68.479 25.464 C 59.225 27.944 48.389 17.558 50.869 26.813 C 53.348 36.068 62.875 41.568 72.13 39.088 C 81.385 36.608 86.885 27.082 84.405 17.827 C 81.925 8.572 77.734 22.984 68.479 25.464 Z " fill="url(#_lgradient_1)"/></g></svg>